<svg width="91" height="28" viewBox="0 0 91 28" fill="none" xmlns="http://www.w3.org/2000/svg">
<path d="M10.16 27.252C8.408 27.252 6.824 26.952 5.408 26.352C4.016 25.752 2.912 24.888 2.096 23.76C1.28 22.632 0.859998 21.3 0.835999 19.764H6.236C6.308 20.796 6.668 21.612 7.316 22.212C7.988 22.812 8.9 23.112 10.052 23.112C11.228 23.112 12.152 22.836 12.824 22.284C13.496 21.708 13.832 20.964 13.832 20.052C13.832 19.308 13.604 18.696 13.148 18.216C12.692 17.736 12.116 17.364 11.42 17.1C10.748 16.812 9.812 16.5 8.612 16.164C6.98 15.684 5.648 15.216 4.616 14.76C3.608 14.28 2.732 13.572 1.988 12.636C1.268 11.676 0.907999 10.404 0.907999 8.81999C0.907999 7.33198 1.28 6.03598 2.024 4.93198C2.768 3.82798 3.812 2.98798 5.156 2.41198C6.5 1.81199 8.036 1.51199 9.764 1.51199C12.356 1.51199 14.456 2.14798 16.064 3.41998C17.696 4.66798 18.596 6.41999 18.764 8.67599H13.22C13.172 7.81199 12.8 7.10399 12.104 6.55199C11.432 5.97599 10.532 5.68799 9.404 5.68799C8.42 5.68799 7.628 5.93998 7.028 6.44398C6.452 6.94798 6.164 7.67998 6.164 8.63998C6.164 9.31198 6.38 9.87598 6.812 10.332C7.268 10.764 7.82 11.124 8.468 11.412C9.14 11.676 10.076 11.988 11.276 12.348C12.908 12.828 14.24 13.308 15.272 13.788C16.304 14.268 17.192 14.988 17.936 15.948C18.68 16.908 19.052 18.168 19.052 19.728C19.052 21.072 18.704 22.32 18.008 23.472C17.312 24.624 16.292 25.548 14.948 26.244C13.604 26.916 12.008 27.252 10.16 27.252Z" fill="#FBFBFB"/>
<path d="M29.2895 11.196V20.844C29.2895 21.516 29.4455 22.008 29.7575 22.32C30.0935 22.608 30.6455 22.752 31.4135 22.752H33.7535V27H30.5855C26.3375 27 24.2135 24.936 24.2135 20.808V11.196H21.8375V7.05599H24.2135V2.12398H29.2895V7.05599H33.7535V11.196H29.2895Z" fill="#FBFBFB"/>
<path d="M56.2065 7.05599V27H51.1305V24.48C50.4825 25.344 49.6305 26.028 48.5745 26.532C47.5425 27.012 46.4145 27.252 45.1905 27.252C43.6305 27.252 42.2505 26.928 41.0505 26.28C39.8505 25.608 38.9025 24.636 38.2065 23.364C37.5345 22.068 37.1985 20.532 37.1985 18.756V7.05599H42.2385V18.036C42.2385 19.62 42.6345 20.844 43.4265 21.708C44.2185 22.548 45.2985 22.968 46.6665 22.968C48.0585 22.968 49.1505 22.548 49.9425 21.708C50.7345 20.844 51.1305 19.62 51.1305 18.036V7.05599H56.2065Z" fill="#FBFBFB"/>
<path d="M59.8833 16.956C59.8833 14.94 60.2793 13.152 61.0713 11.592C61.8873 10.032 62.9913 8.83199 64.3833 7.99199C65.7753 7.15199 67.3233 6.73198 69.0273 6.73198C70.3233 6.73198 71.5593 7.01998 72.7353 7.59598C73.9113 8.14798 74.8473 8.89198 75.5433 9.82798V0.359985H80.6553V27H75.5433V24.048C74.9193 25.032 74.0433 25.824 72.9153 26.424C71.7873 27.024 70.4793 27.324 68.9913 27.324C67.3113 27.324 65.7753 26.892 64.3833 26.028C62.9913 25.164 61.8873 23.952 61.0713 22.392C60.2793 20.808 59.8833 18.996 59.8833 16.956ZM75.5793 17.028C75.5793 15.804 75.3393 14.76 74.8593 13.896C74.3793 13.008 73.7313 12.336 72.9153 11.88C72.0993 11.4 71.2233 11.16 70.2873 11.16C69.3513 11.16 68.4873 11.388 67.6953 11.844C66.9033 12.3 66.2553 12.972 65.7513 13.86C65.2713 14.724 65.0313 15.756 65.0313 16.956C65.0313 18.156 65.2713 19.212 65.7513 20.124C66.2553 21.012 66.9033 21.696 67.6953 22.176C68.5113 22.656 69.3753 22.896 70.2873 22.896C71.2233 22.896 72.0993 22.668 72.9153 22.212C73.7313 21.732 74.3793 21.06 74.8593 20.196C75.3393 19.308 75.5793 18.252 75.5793 17.028Z" fill="#FBFBFB"/>
<path d="M87.8098 27.252C86.8978 27.252 86.1417 26.976 85.5417 26.424C84.9658 25.848 84.6777 25.14 84.6777 24.3C84.6777 23.46 84.9658 22.764 85.5417 22.212C86.1417 21.636 86.8978 21.348 87.8098 21.348C88.6978 21.348 89.4298 21.636 90.0058 22.212C90.5817 22.764 90.8698 23.46 90.8698 24.3C90.8698 25.14 90.5817 25.848 90.0058 26.424C89.4298 26.976 88.6978 27.252 87.8098 27.252Z" fill="#FBFBFB"/>
</svg>
